<?xml version="1.0" encoding="UTF-8"?>
<svg version="1.1" xmlns="http://www.w3.org/2000/svg" width="1024" height="1024">
<path d="M0 0 C337.92 0 675.84 0 1024 0 C1024 337.92 1024 675.84 1024 1024 C686.08 1024 348.16 1024 0 1024 C0 686.08 0 348.16 0 0 Z " fill="#FEFEFC" transform="translate(0,0)"/>
<path d="M0 0 C7.11771556 3.95554575 11.50008063 8.83084288 15.25390625 16.03125 C15.76860474 17.00958801 15.76860474 17.00958801 16.29370117 18.00769043 C20.3640643 25.90906589 23.65190167 34.11932975 26.953125 42.36328125 C27.64203215 44.06529441 28.33183098 45.7669469 29.02246094 47.46826172 C30.45396563 50.99666529 31.88167587 54.52656762 33.30664062 58.05761719 C36.40524488 65.72752363 39.54963319 73.37861015 42.69354248 81.0300293 C43.69750056 83.4745862 44.69981335 85.91981154 45.70166016 88.36523438 C48.79897278 95.92264268 51.90920731 103.47421865 55.0546875 111.01171875 C55.61556462 112.35790819 56.17643715 113.70409954 56.73730469 115.05029297 C57.76218816 117.50956373 58.79216774 119.96648006 59.82519531 122.42236328 C62.02077075 127.68595415 64.06889672 132.82636813 65.453125 138.36328125 C66.41347656 138.55921875 67.37382812 138.75515625 68.36328125 138.95703125 C113.69004126 148.67191859 113.69004126 148.67191859 122.453125 161.36328125 C123.89804404 165.55006473 123.85990309 168.394762 122.140625 172.48828125 C109.37492859 186.14460765 86.04954925 188.5216026 68.453125 191.36328125 C67.59025879 191.50362793 66.72739258 191.64397461 65.83837891 191.78857422 C38.36259926 196.1430519 10.85566917 196.69579724 -16.89282227 196.62402344 C-21.34987261 196.61260347 -25.80668484 196.61943237 -30.26372719 196.63089371 C-54.41459407 196.68377886 -78.45584118 196.45377512 -102.296875 192.11328125 C-103.502229 191.89784668 -104.70758301 191.68241211 -105.94946289 191.46044922 C-145.68944999 184.08253907 -145.68944999 184.08253907 -156.546875 171.36328125 C-157.44565783 168.57176751 -157.25153486 166.19924841 -156.546875 163.36328125 C-151.59845122 156.71383679 -143.24776488 152.92695277 -135.671875 149.98828125 C-134.91575928 149.66674072 -134.15964355 149.3452002 -133.38061523 149.01391602 C-128.56723726 147.08712871 -124.45193068 146.18813501 -119.26171875 145.9765625 C-112.05328268 145.4198112 -104.97354275 144.57362448 -99.546875 139.36328125 C-91.16472804 127.85566737 -87.19175562 112.68997211 -82.64160156 99.37255859 C-79.95519165 91.55581097 -76.83520093 83.93389659 -73.66604614 76.30319214 C-72.43366149 73.32377538 -71.22746291 70.33405973 -70.02070618 67.3441925 C-66.0775235 57.58362626 -62.02228059 47.87120199 -57.921875 38.17578125 C-57.63323578 37.49059418 -57.34459656 36.8054071 -57.04721069 36.09945679 C-44.21424185 5.67205916 -44.21424185 5.67205916 -29.7109375 -0.796875 C-20.60891678 -4.32924766 -8.95085197 -3.89924839 0 0 Z " fill="#9389CD" transform="translate(260.546875,342.63671875)"/>
<path d="M0 0 C-0.58726959 4.59952715 -1.42767825 8.96258839 -2.6706543 13.42822266 C-3.01158615 14.66126129 -3.35251801 15.89429993 -3.70378113 17.16470337 C-4.07714984 18.49785403 -4.45063215 19.83097288 -4.82421875 21.1640625 C-5.21233966 22.56096585 -5.60009393 23.95797111 -5.98750305 25.35507202 C-7.00877117 29.03385374 -8.03539421 32.71112075 -9.06304932 36.38812256 C-10.08659989 40.05463659 -11.10449785 43.72271907 -12.12304688 47.390625 C-13.87650211 53.70355755 -15.64329907 60.01265311 -17.41587639 66.32024002 C-18.55111635 70.36929008 -19.65722601 74.425172 -20.74462891 78.48730469 C-21.00629349 79.44768646 -21.26795807 80.40806824 -21.53755188 81.39755249 C-22.00255075 83.10538201 -22.45823326 84.81579677 -22.90129089 86.52944946 C-24.60407031 92.70775363 -27.20719475 98.50869077 -32.0625 102.83984375 C-38.87262035 106.69799661 -38.87262035 106.69799661 -43 107 C-43.64453125 107.07347656 -44.2890625 107.14695312 -44.953125 107.22265625 C-51.47887013 107.66759342 -56.6586953 105.73614577 -62 102 C-64.91884912 98.62980896 -67.1264644 95.19676745 -69.21484375 91.265625 C-69.81288818 90.14526855 -70.41093262 89.02491211 -71.02709961 87.87060547 C-71.66416925 86.66387922 -72.30096338 85.45700749 -72.9375 84.25 C-73.59680281 83.0078246 -74.25639314 81.76580176 -74.91625977 80.52392578 C-76.61447593 77.32329597 -78.30494176 74.11864306 -79.99267578 70.91247559 C-80.98302348 69.03223112 -81.97558166 67.15316991 -82.96875 65.27441406 C-84.79846556 61.81149945 -86.61919569 58.34392197 -88.4375 54.875 C-89.27945923 53.27640137 -89.27945923 53.27640137 -90.13842773 51.64550781 C-90.64833252 50.66678711 -91.1582373 49.68806641 -91.68359375 48.6796875 C-92.13275146 47.82101074 -92.58190918 46.96233398 -93.04467773 46.07763672 C-94 44 -94 44 -94 42 C-94.66 42 -95.32 42 -96 42 C-96.25652344 42.67909424 -96.51304687 43.35818848 -96.77734375 44.05786133 C-98.20323536 47.48905539 -99.85972317 50.77523 -101.5625 54.07421875 C-101.91006851 54.75157578 -102.25763702 55.4289328 -102.61573792 56.1268158 C-106.38404543 63.45945106 -110.18784411 70.77377291 -114.00164795 78.08282471 C-114.88794417 79.78481472 -115.76882892 81.48962027 -116.64892578 83.19482422 C-126.11246876 101.47970625 -126.11246876 101.47970625 -135.8125 106.4375 C-143.66855217 107.82386215 -150.5708651 107.89992073 -157.62617493 103.77098083 C-165.04138059 98.23890214 -167.40145733 88.48495855 -169.55078125 79.93359375 C-169.85130402 78.79259216 -170.15182678 77.65159058 -170.4614563 76.47601318 C-171.42636319 72.80013288 -172.36958606 69.11907645 -173.3125 65.4375 C-173.97178581 62.90949355 -174.63268148 60.38190641 -175.29516602 57.85473633 C-176.60199265 52.86623434 -177.90222389 47.87608547 -179.19824219 42.88476562 C-180.74797292 36.93706176 -182.34198165 31.00303122 -183.9765625 25.078125 C-184.19320053 24.29264786 -184.40983856 23.50717072 -184.63304138 22.69789124 C-185.42250648 19.84189021 -186.21452188 16.98662064 -187.01089478 14.13253784 C-187.52993515 12.27022063 -188.0444141 10.40663385 -188.55859375 8.54296875 C-188.84017334 7.53258545 -189.12175293 6.52220215 -189.41186523 5.48120117 C-190 3 -190 3 -190 0 C-181.10111465 -0.35438039 -170.34728227 -0.67352952 -163 5 C-160.76505481 8.96286757 -159.37179264 12.76900331 -158.2734375 17.171875 C-157.96792969 18.37835693 -157.66242188 19.58483887 -157.34765625 20.82788086 C-157.1892627 21.46660126 -157.03086914 22.10532166 -156.86767578 22.76339722 C-156.19342748 25.48214979 -155.50428705 28.19705699 -154.81573486 30.91221619 C-154.45104066 32.35039816 -154.08707999 33.78876631 -153.72381592 35.22731018 C-151.55122032 43.81547157 -149.27531125 52.37609759 -147 60.9375 C-146.59808409 62.4521324 -146.19622714 63.96678045 -145.79443359 65.48144531 C-144.86401898 68.98791315 -143.93239983 72.49405945 -143 76 C-142.5457666 75.08863281 -142.0915332 74.17726563 -141.62353516 73.23828125 C-136.37167645 62.71139972 -131.08862452 52.20048521 -125.75390625 41.71533203 C-124.82811779 39.89227621 -123.90530495 38.06770649 -122.98535156 36.24169922 C-121.63034233 33.55319643 -120.26541915 30.8699312 -118.8984375 28.1875 C-118.49515228 27.3821582 -118.09186707 26.57681641 -117.67636108 25.74707031 C-114.17204026 18.91373871 -109.79816991 10.68133024 -102.875 6.8125 C-96.35087485 4.9687255 -90.95993602 5.52003199 -84.921875 8.5390625 C-79.11135625 12.95600155 -76.05662249 19.20099631 -72.8125 25.5625 C-72.31782227 26.520354 -71.82314453 27.47820801 -71.31347656 28.46508789 C-63.27027455 44.17257526 -55.66492433 60.10565041 -48 76 C-44.76528104 64.91453069 -41.65637534 53.8095439 -38.78125 42.625 C-37.96289605 39.47723988 -37.14295679 36.32989599 -36.32275391 33.18261719 C-35.76730693 31.03400982 -35.21897037 28.88355352 -34.67724609 26.73144531 C-33.8778884 23.56536191 -33.0510229 20.40756695 -32.21875 17.25 C-31.98418091 16.29174316 -31.74961182 15.33348633 -31.50793457 14.34619141 C-29.88942653 8.33637198 -28.2974716 5.38410027 -23 2 C-19.81640625 1.109375 -19.81640625 1.109375 -16.5625 0.75 C-15.43199219 0.61464844 -14.30148437 0.47929688 -13.13671875 0.33984375 C-12.10160156 0.22769531 -11.06648437 0.11554687 -10 0 C-8.62393811 -0.22270167 -7.24863061 -0.45026316 -5.875 -0.6875 C-3 -1 -3 -1 0 0 Z " fill="#8E84C8" transform="translate(339,556)"/>
<path d="M0 0 C6.33134467 -0.0511584 12.66263506 -0.08592383 18.99414062 -0.10986328 C21.14324943 -0.11985464 23.29234487 -0.13345231 25.44140625 -0.15087891 C57.56598015 -0.4046511 57.56598015 -0.4046511 69 8 C75.68537374 14.84614425 77.41339153 21.53565922 77.36352539 30.90625 C77.10281324 41.06591286 72.89356799 46.8934285 66 54 C67.88293734 55.96139306 69.77228615 57.81988208 71.90625 59.5078125 C77.09541977 63.67076586 80.51674922 67.39953402 82 74 C83.13160751 85.41037577 82.14524421 95.04852451 74.875 104.3125 C66.2841922 113.32104264 53.60013355 115.85255462 41.56958008 116.25512695 C36.49422586 116.34741762 31.42122468 116.33206721 26.34545898 116.28125 C23.14880915 116.24961713 19.95265146 116.24022145 16.75585938 116.234375 C14.72655641 116.22522189 12.69725848 116.21485159 10.66796875 116.203125 C9.23229805 116.19675018 9.23229805 116.19675018 7.7676239 116.19024658 C6.89193253 116.18063904 6.01624115 116.17103149 5.11401367 116.16113281 C4.34127609 116.15430481 3.56853851 116.14747681 2.77238464 116.14044189 C1 116 1 116 0 115 C-0.09571971 113.50716202 -0.12188227 112.00980345 -0.12025452 110.51390076 C-0.12162918 109.54489838 -0.12300385 108.575896 -0.12442017 107.57752991 C-0.12082489 106.50579025 -0.11722961 105.4340506 -0.11352539 104.32983398 C-0.11367142 103.20802734 -0.11381744 102.0862207 -0.1139679 100.93041992 C-0.1132682 97.20229189 -0.10547315 93.47421311 -0.09765625 89.74609375 C-0.09579227 87.16919482 -0.09436827 84.59229553 -0.09336853 82.01539612 C-0.08993342 75.91324885 -0.0820426 69.81112206 -0.07201904 63.70898253 C-0.06085689 56.7635075 -0.0553472 49.81803165 -0.05032361 42.87254989 C-0.03985996 28.58169034 -0.02226115 14.2908458 0 0 Z " fill="#8F87CC" transform="translate(427,463)"/>
<path d="M0 0 C7.26 0 14.52 0 22 0 C28.83218393 28.29662843 35.61474018 56.598777 42 85 C44.60971272 77.5827652 46.56386493 70.08715814 48.43359375 62.453125 C48.7556069 61.15181242 49.07804903 59.85060593 49.40089417 58.54949951 C50.58796445 53.7615115 51.76733207 48.97163358 52.94677734 44.1817627 C53.94601748 40.12496308 54.94835688 36.06895217 55.95457649 32.01387787 C56.41828941 30.13997124 56.87760853 28.26497902 57.33677673 26.38995361 C59.29306772 18.49801579 61.54851181 10.75288613 64 3 C71.26 3 78.52 3 86 3 C88.44302321 12.51016619 90.88582767 22.0203885 93.32825279 31.53070831 C94.46251496 35.9472648 95.59687096 40.36379714 96.73144531 44.78027344 C97.82745057 49.04662916 98.92320423 53.31304942 100.01878738 57.57951355 C100.43570724 59.20291927 100.85271599 60.82630216 101.26981735 62.44966125 C101.85638696 64.73265552 102.44263331 67.01573258 103.02880859 69.29882812 C103.19928207 69.96202057 103.36975555 70.62521301 103.5453949 71.3085022 C104.71549368 75.86781139 105.86188127 80.43263062 107 85 C108.52125677 81.41675926 109.60566238 77.90030613 110.515625 74.1171875 C110.93352295 72.38674194 110.93352295 72.38674194 111.35986328 70.62133789 C111.80048096 68.76690063 111.80048096 68.76690063 112.25 66.875 C112.56098648 65.57607884 112.87202239 64.27716951 113.18310547 62.97827148 C116.01985649 51.08721417 118.66849891 39.15563798 121.29150391 27.21582031 C122.45095129 21.95315974 123.62750277 16.69446024 124.8125 11.4375 C125.01955566 10.50881104 125.22661133 9.58012207 125.43994141 8.62329102 C125.63120605 7.77694092 125.8224707 6.93059082 126.01953125 6.05859375 C126.26860229 4.94955688 126.26860229 4.94955688 126.52270508 3.81811523 C127 2 127 2 128 0 C134.93 0 141.86 0 149 0 C147.87502477 10.12477704 147.87502477 10.12477704 146.57641602 15.26196289 C146.14395569 16.99123016 146.14395569 16.99123016 145.70275879 18.75543213 C145.38963745 19.98211609 145.07651611 21.20880005 144.75390625 22.47265625 C144.42301737 23.78687535 144.09266717 25.10123017 143.76281738 26.41571045 C142.88386675 29.91248247 141.99783446 33.40742276 141.11037064 36.90204239 C140.19426173 40.5146004 139.28472747 44.12881204 138.37475586 47.74291992 C137.10401098 52.78779377 135.83136786 57.83218044 134.55603886 62.87589741 C132.60674145 70.58568379 130.67116487 78.29877117 128.75 86.015625 C128.51385483 86.963806 128.27770966 87.911987 128.03440857 88.88890076 C127.16779763 92.36964807 126.30163215 95.8505056 125.43630981 99.33157349 C124.86618829 101.62366769 124.29460695 103.91539292 123.72265625 106.20703125 C123.25484741 108.08612183 123.25484741 108.08612183 122.77758789 110.00317383 C122.25395436 112.02125912 121.65930724 114.02207829 121 116 C112.75 116 104.5 116 96 116 C94.98679687 112.21273437 93.97359375 108.42546875 92.9296875 104.5234375 C92.10275462 101.43363483 91.27571614 98.34386047 90.4486084 95.25410461 C89.58591213 92.03129146 88.72344416 88.80841767 87.86132812 85.58544922 C83.61524325 69.71229275 79.34206042 53.84718988 75 38 C71.38896073 50.83134083 67.8034913 63.66917185 64.2890625 76.52734375 C63.98667664 77.63316803 63.68429077 78.73899231 63.3727417 79.87832642 C62.13788741 84.39612516 60.90390475 88.91415829 59.67236328 93.43286133 C58.75478021 96.79819749 57.8346263 100.16282193 56.9140625 103.52734375 C56.63495026 104.55415756 56.35583801 105.58097137 56.06826782 106.63890076 C55.81064667 107.57911575 55.55302551 108.51933075 55.28759766 109.48803711 C55.06222321 110.31420029 54.83684875 111.14036346 54.60464478 111.99156189 C54 114 54 114 53 116 C45.08 116 37.16 116 29 116 C26.95583914 109.86751741 25.11384866 103.87697434 23.57421875 97.625 C23.34984634 96.72609039 23.12547394 95.82718079 22.89430237 94.90103149 C22.15506598 91.9349119 21.42112737 88.96751147 20.6875 86 C20.16849192 83.91059543 19.64928186 81.82124101 19.12988281 79.73193359 C17.71904065 74.05066746 16.31387132 68.36801254 14.91033936 62.68493652 C14.12789562 59.51770499 13.34458217 56.35069024 12.5607748 53.18379593 C10.76994308 45.94810727 8.98268867 38.71154518 7.19888306 31.47412109 C6.56617672 28.90756321 5.93285533 26.34115687 5.29891968 23.77490234 C4.41043959 20.17603705 3.52506677 16.57642205 2.640625 12.9765625 C2.37246475 11.89235016 2.1043045 10.80813782 1.82801819 9.69107056 C1.58603195 8.70327606 1.34404572 7.71548157 1.09472656 6.69775391 C0.88221252 5.83437408 0.66969849 4.97099426 0.45074463 4.08145142 C0 2 0 2 0 0 Z " fill="#8F88CE" transform="translate(628,463)"/>
<path d="M0 0 C7.02834901 6.04824897 11.68579272 14.71639648 13.0625 23.875 C13.4250891 29.87114929 13.39313594 35.87904436 13.0625 41.875 C12.0625 42.875 12.0625 42.875 9.89219666 42.99525452 C8.93511307 42.99303391 7.97802948 42.99081329 6.99194336 42.98852539 C5.91089828 42.98844986 4.82985321 42.98837433 3.71604919 42.98829651 C1.952015 42.98055458 1.952015 42.98055458 0.15234375 42.97265625 C-1.04482773 42.9712413 -2.24199921 42.96982635 -3.47544861 42.96836853 C-7.31699066 42.96274979 -11.15847543 42.95019411 -15 42.9375 C-17.59700437 42.93248741 -20.19400965 42.92792409 -22.79101562 42.92382812 C-29.17319679 42.91277427 -35.5553443 42.89601792 -41.9375 42.875 C-41.18693 44.96887369 -40.42252966 47.05779312 -39.65234375 49.14453125 C-39.01607056 50.89020386 -39.01607056 50.89020386 -38.36694336 52.67114258 C-35.90840811 58.18153678 -32.40951971 60.66645703 -27.125 63.25 C-15.16998034 65.5941215 -4.15524207 61.80120973 7.0625 57.875 C8.56406874 60.87813748 8.15531204 63.66567522 8.125 67 C8.11597656 68.28132812 8.10695313 69.56265625 8.09765625 70.8828125 C8.08605469 71.87023437 8.07445312 72.85765625 8.0625 73.875 C-4.65537016 80.96765836 -18.58925865 83.19454217 -32.75 79.25 C-43.51703679 75.50835659 -51.89215268 68.99634951 -57.25 58.8125 C-62.96164577 47.0015402 -63.12928419 30.34204863 -59.3125 17.9375 C-54.87340487 7.22779496 -46.77894297 -0.91378998 -36.11328125 -5.3984375 C-24.02224416 -9.436019 -10.38874399 -7.38561127 0 0 Z " fill="#8F87CD" transform="translate(948.9375,500.125)"/>
<path d="M0 0 C1 1 1 1 1.09765625 4.37890625 C1.09098369 5.77347077 1.07902532 7.16801743 1.0625 8.5625 C1.05798828 9.27341797 1.05347656 9.98433594 1.04882812 10.71679688 C1.03700864 12.47790013 1.01907263 14.23896036 1 16 C-6.56117976 15.11786236 -6.56117976 15.11786236 -8.88793945 14.49291992 C-12.36450534 13.68154707 -15.88583334 13.77426416 -19.4375 13.75 C-20.56381836 13.7190625 -20.56381836 13.7190625 -21.71289062 13.6875 C-26.26760155 13.65545278 -29.35148109 13.95719224 -33 17 C-33.75015195 19.95691709 -33.75015195 19.95691709 -33 23 C-29.69092043 27.38042648 -25.35954532 28.61529748 -20.375 30.375 C-0.7089716 37.72787125 -0.7089716 37.72787125 4 48 C6.1201833 54.3605499 6.21737604 62.37399125 3.3125 68.5 C-1.31430905 76.13663639 -8.05965628 80.18800836 -16.484375 82.7578125 C-29.75051867 85.75748193 -41.88767739 83.86080126 -54 78 C-54 72.39 -54 66.78 -54 61 C-50.14296572 61.77140686 -47.66363562 62.53519002 -44.1875 64.0625 C-39.24491383 65.90504233 -34.84168667 66.40825648 -29.625 66.4375 C-28.60829224 66.4521228 -28.60829224 66.4521228 -27.57104492 66.46704102 C-23.25170616 66.39368668 -20.38395379 65.72105239 -17 63 C-15.66339855 59.64407137 -15.66339855 59.64407137 -16 56 C-20.01714694 50.64660543 -25.06762365 49.25386571 -31.25 47.1875 C-40.7058344 43.80095052 -47.47758984 40.44372479 -53.0625 31.8125 C-54.76714798 24.88026486 -55.41432112 17.23468526 -52.4375 10.5625 C-48.41266011 3.9243092 -42.6513423 0.09046471 -35.34375 -2.30859375 C-23.69281787 -4.71772341 -11.32104444 -3.37706581 0 0 Z " fill="#8F87CD" transform="translate(876,497)"/>
<path d="M0 0 C6.27 0 12.54 0 19 0 C19 38.28 19 76.56 19 116 C12.73 116 6.46 116 0 116 C0 77.72 0 39.44 0 0 Z " fill="#8D86CE" transform="translate(561,463)"/>
<path d="M0 0 C5.94 0 11.88 0 18 0 C19.59183899 1.59183899 19.12599125 3.23445499 19.12698364 5.44140625 C19.12980347 6.40054932 19.13262329 7.35969238 19.13552856 8.34790039 C19.13350433 9.40871826 19.1314801 10.46953613 19.12939453 11.5625 C19.13114685 12.67294678 19.13289917 13.78339355 19.13470459 14.92749023 C19.13912572 18.61834246 19.13618419 22.30914724 19.1328125 26 C19.13348546 28.55208343 19.13445542 31.10416679 19.13571167 33.65625 C19.137189 39.01302762 19.13512756 44.36978805 19.13037109 49.7265625 C19.12492851 55.92783715 19.12669118 62.12907893 19.1321975 68.33035278 C19.13727437 74.28534215 19.13674707 80.24032127 19.13381577 86.1953125 C19.13314624 88.73437505 19.13397582 91.27343842 19.13629532 93.8125 C19.1388203 97.35418964 19.13498342 100.89581517 19.12939453 104.4375 C19.13141876 105.49831787 19.13344299 106.55913574 19.13552856 107.65209961 C19.13129883 109.09081421 19.13129883 109.09081421 19.12698364 110.55859375 C19.12660662 111.39704834 19.12622959 112.23550293 19.12584114 113.09936523 C19 115 19 115 18 116 C12.06 116 6.12 116 0 116 C0 77.72 0 39.44 0 0 Z " fill="#8E88CE" transform="translate(598,463)"/>
<path d="M0 0 C0.804375 -0.00128906 1.60875 -0.00257813 2.4375 -0.00390625 C3.283125 -0.00003906 4.12875 0.00382812 5 0.0078125 C6.2684375 0.00201172 6.2684375 0.00201172 7.5625 -0.00390625 C8.366875 -0.00261719 9.17125 -0.00132812 10 0 C10.7425 0.00112793 11.485 0.00225586 12.25 0.00341797 C14 0.1328125 14 0.1328125 15 1.1328125 C15.10037731 3.68332724 15.13617487 6.20678429 15.12939453 8.7578125 C15.13114685 9.55614502 15.13289917 10.35447754 15.13470459 11.17700195 C15.13912367 13.8289606 15.13618492 16.48085312 15.1328125 19.1328125 C15.13348552 20.96744805 15.13445553 22.80208351 15.13571167 24.63671875 C15.13718872 28.48698778 15.13503386 32.33723366 15.13037109 36.1875 C15.1246738 41.13437747 15.12795277 46.08120069 15.13394356 51.02807617 C15.13754898 54.81803805 15.13641067 58.60798696 15.13381577 62.39794922 C15.13314644 64.22249355 15.1339751 66.04703905 15.13629532 67.87158203 C15.13882154 70.41702411 15.1349817 72.96237709 15.12939453 75.5078125 C15.13141876 76.26940674 15.13344299 77.03100098 15.13552856 77.81567383 C15.11426258 83.01854992 15.11426258 83.01854992 14 84.1328125 C12.66956375 84.2311846 11.33406656 84.26359842 10 84.265625 C9.195625 84.26691406 8.39125 84.26820313 7.5625 84.26953125 C6.716875 84.26566406 5.87125 84.26179687 5 84.2578125 C4.154375 84.26167969 3.30875 84.26554688 2.4375 84.26953125 C1.633125 84.26824219 0.82875 84.26695312 0 84.265625 C-0.7425 84.26449707 -1.485 84.26336914 -2.25 84.26220703 C-4 84.1328125 -4 84.1328125 -5 83.1328125 C-5.10037731 80.58229776 -5.13617487 78.05884071 -5.12939453 75.5078125 C-5.13114685 74.70947998 -5.13289917 73.91114746 -5.13470459 73.08862305 C-5.13912367 70.4366644 -5.13618492 67.78477188 -5.1328125 65.1328125 C-5.13348552 63.29817695 -5.13445553 61.46354149 -5.13571167 59.62890625 C-5.13718872 55.77863722 -5.13503386 51.92839134 -5.13037109 48.078125 C-5.1246738 43.13124753 -5.12795277 38.18442431 -5.13394356 33.23754883 C-5.13754898 29.44758695 -5.13641067 25.65763804 -5.13381577 21.86767578 C-5.13314644 20.04313145 -5.1339751 18.21858595 -5.13629532 16.39404297 C-5.13882154 13.84860089 -5.1349817 11.30324791 -5.12939453 8.7578125 C-5.13243088 7.61542114 -5.13243088 7.61542114 -5.13552856 6.44995117 C-5.10919706 0.00776137 -5.10919706 0.00776137 0 0 Z " fill="#908ACE" transform="translate(528,494.8671875)"/>
<path d="M0 0 C6.27 0 12.54 0 19 0 C19 27.72 19 55.44 19 84 C12.73 84 6.46 84 0 84 C0 56.28 0 28.56 0 0 Z " fill="#8D86CD" transform="translate(789,495)"/>
<path d="M0 0 C27.88089688 -0.56515332 27.88089688 -0.56515332 37 6 C41.04060437 11.24305994 40.77486523 16.64610511 40 23 C37.85012772 27.53861925 35.52096988 29.85253931 31 32 C27.54403138 33.11385581 24.3198349 33.1147162 20.703125 33.09765625 C19.61676758 33.09515869 18.53041016 33.09266113 17.41113281 33.09008789 C16.03795898 33.08098389 14.66478516 33.07187988 13.25 33.0625 C6.69125 33.0315625 6.69125 33.0315625 0 33 C0 22.11 0 11.22 0 0 Z " fill="#FDFAF8" transform="translate(448,528)"/>
<path d="M0 0 C3.980625 -0.061875 7.96125 -0.12375 12.0625 -0.1875 C13.92467163 -0.22846802 13.92467163 -0.22846802 15.82446289 -0.27026367 C21.99593291 -0.31661324 26.61621505 -0.13561102 32 3 C35.07834569 6.39407345 35.93001437 8.37012936 36.4375 12.9375 C36.12952782 18.30648165 34.51464147 22.52521752 30.625 26.3125 C26.22196994 29.14301932 22.71816902 30.25383429 17.48046875 30.1953125 C16.55903076 30.19031738 15.63759277 30.18532227 14.68823242 30.18017578 C13.53299072 30.16196777 12.37774902 30.14375977 11.1875 30.125 C5.6496875 30.063125 5.6496875 30.063125 0 30 C0 20.1 0 10.2 0 0 Z " fill="#FDFAF8" transform="translate(448,481)"/>
<path d="M0 0 C4.90331294 2.27653815 7.5537698 5.19814071 10 10 C10.495 14.455 10.495 14.455 11 19 C-0.88 19 -12.76 19 -25 19 C-21.46020761 7.20069204 -21.46020761 7.20069204 -15.5 1.6875 C-10.34444075 -0.79821607 -5.62366168 -0.75703138 0 0 Z " fill="#FCFAF9" transform="translate(932,509)"/>
<path d="M0 0 C3.61691275 2.09780939 4.68291409 3.04874226 6 7 C6.36795288 11.96736392 6.2446074 15.10647112 3 19 C-1.05815166 21.61525329 -4.19144587 22.70124748 -9 22 C-12.03522895 20.36564595 -14.28352297 18.944447 -16.375 16.1875 C-17.61245226 11.85641708 -17.59749517 8.28034678 -15.6875 4.1875 C-11.52275731 -1.21124052 -6.2832264 -0.76243829 0 0 Z " fill="#8E86CE" transform="translate(538,463)"/>
<path d="M0 0 C5.46341463 2.92682927 5.46341463 2.92682927 7 6 C7.64507919 11.20671061 7.9173523 14.81709835 4.625 19.0625 C0.47819715 22.12323543 -2.89892596 22.70979694 -8 22 C-13.5 19 -13.5 19 -15 16 C-15.53118252 11.08003072 -15.75105553 7.22672403 -13.125 2.9375 C-9.12898734 -0.70592331 -5.21868472 -0.65671368 0 0 Z " fill="#8D86CD" transform="translate(803,463)"/>
<path d="M0 0 C0.66 0 1.32 0 2 0 C2 4.95 2 9.9 2 15 C-5.75 14.25 -5.75 14.25 -8 12 C-5.36 12.33 -2.72 12.66 0 13 C0 8.71 0 4.42 0 0 Z " fill="#7E75C6" transform="translate(875,498)"/>
<path d="M0 0 C0.99 0.33 1.98 0.66 3 1 C2.33613281 1.29132813 1.67226562 1.58265625 0.98828125 1.8828125 C-4.79309713 4.56672246 -8.21002517 6.90722133 -12 12 C-12.66 12 -13.32 12 -14 12 C-14 13.98 -14 15.96 -14 18 C-14.33 18 -14.66 18 -15 18 C-15.40569172 13.86194442 -15.56922152 11.74710324 -13 8.375 C-8.92285591 5.14726093 -4.65502088 2.32751044 0 0 Z " fill="#8176C6" transform="translate(119,495)"/>
<path d="M0 0 C1 2 1 2 0.07421875 4.8984375 C-0.61220703 6.61933594 -0.61220703 6.61933594 -1.3125 8.375 C-1.98732422 10.08816406 -1.98732422 10.08816406 -2.67578125 11.8359375 C-5.43949045 18.43949045 -5.43949045 18.43949045 -8 21 C-7.40925318 16.19279775 -5.9584358 12.0801237 -4 7.6875 C-3.72671875 7.05521484 -3.4534375 6.42292969 -3.171875 5.77148438 C-1.15160714 1.15160714 -1.15160714 1.15160714 0 0 Z " fill="#8075C3" transform="translate(197,396)"/>
<path d="M0 0 C0.87840996 3.09720845 0.99435406 4.90645403 0 8 C-0.66 8 -1.32 8 -2 8 C-2.66 9.98 -3.32 11.96 -4 14 C-4.33 13.34 -4.66 12.68 -5 12 C-4.26821134 9.92803369 -3.44100997 7.8891448 -2.5625 5.875 C-2.08941406 4.77929688 -1.61632812 3.68359375 -1.12890625 2.5546875 C-0.75636719 1.71164062 -0.38382813 0.86859375 0 0 Z " fill="#8075C3" transform="translate(176,446)"/>
<path d="M0 0 C1.6396875 0.0928125 1.6396875 0.0928125 3.3125 0.1875 C3.6425 1.1775 3.9725 2.1675 4.3125 3.1875 C0.6825 3.1875 -2.9475 3.1875 -6.6875 3.1875 C-3.6875 0.1875 -3.6875 0.1875 0 0 Z " fill="#9C91CF" transform="translate(274.6875,535.8125)"/>
<path d="M0 0 C0.33 0 0.66 0 1 0 C1.36923077 6.4 1.36923077 6.4 -0.5 9.4375 C-0.995 9.953125 -1.49 10.46875 -2 11 C-1.85892253 9.54119891 -1.71197585 8.08296449 -1.5625 6.625 C-1.48128906 5.81289063 -1.40007813 5.00078125 -1.31640625 4.1640625 C-1 2 -1 2 0 0 Z " fill="#7E75C6" transform="translate(891,516)"/>
</svg>
